<svg width="10" height="10" viewBox="0 0 10 10" fill="none" xmlns="http://www.w3.org/2000/svg">
<path fill-rule="evenodd" clip-rule="evenodd" d="M5.35964 0.146395C5.26588 0.0526582 5.13873 0 5.00614 0C4.87356 0 4.74641 0.0526582 4.65264 0.146395L1.15264 3.64643L0.152644 4.64644C0.104889 4.69257 0.0667979 4.74774 0.0405934 4.80874C0.0143889 4.86975 0.000595787 4.93536 1.88784e-05 5.00175C-0.00055803 5.06814 0.0120928 5.13398 0.0372333 5.19543C0.0623737 5.25687 0.0995003 5.3127 0.146447 5.35965C0.193393 5.40659 0.249219 5.44372 0.310667 5.46886C0.372115 5.494 0.437955 5.50665 0.504345 5.50608C0.570734 5.5055 0.636344 5.49171 0.697346 5.4655C0.758348 5.4393 0.813521 5.40121 0.859644 5.35345L1.00614 5.20695V8.49998C1.00614 8.89781 1.16418 9.27935 1.44548 9.56066C1.72679 9.84196 2.10832 10 2.50614 10H7.50614C7.90397 10 8.2855 9.84196 8.5668 9.56066C8.84811 9.27935 9.00614 8.89781 9.00614 8.49998V5.20695L9.15264 5.35345C9.24695 5.44453 9.37325 5.49493 9.50434 5.49379C9.63544 5.49265 9.76085 5.44006 9.85355 5.34736C9.94626 5.25465 9.99884 5.12925 9.99998 4.99815C10.0011 4.86705 9.95072 4.74075 9.85964 4.64644L5.35964 0.146395Z" fill="#FFDDB4"/>
</svg>
