<svg width="10" height="10" viewBox="0 0 10 10" fill="none" xmlns="http://www.w3.org/2000/svg">
<path d="M5 0C5.12249 1.90062e-05 5.24071 0.0529154 5.33225 0.148656C5.42378 0.244397 5.48226 0.376323 5.49659 0.519412L5.5001 0.588235V1.17647H6.25024C7.2343 1.17677 8.17884 1.63195 8.88021 2.44387C9.58157 3.25579 9.98356 4.35941 9.99951 5.51676C10.0155 6.6741 9.64407 7.79246 8.96544 8.63068C8.28681 9.46891 7.3553 9.95985 6.37176 9.99765L6.25024 10H3.74976C2.7657 9.99971 1.82116 9.54452 1.11979 8.7326C0.41843 7.92068 0.0164369 6.81706 0.000492939 5.65972C-0.015451 4.50237 0.355931 3.38401 1.03456 2.54579C1.71319 1.70756 2.6447 1.21662 3.62824 1.17882L3.74976 1.17647H4.4999V0.588235C4.4999 0.432226 4.55259 0.282606 4.64638 0.17229C4.74017 0.0619746 4.86737 0 5 0ZM6.75033 4.11765C6.6177 4.11765 6.4905 4.17962 6.39671 4.28994C6.30293 4.40025 6.25024 4.54987 6.25024 4.70588V5H6.00019C5.86756 5 5.74036 5.06198 5.64657 5.17229C5.55278 5.28261 5.5001 5.43223 5.5001 5.58824C5.5001 5.74425 5.55278 5.89387 5.64657 6.00418C5.74036 6.1145 5.86756 6.17647 6.00019 6.17647H6.25024V6.47059C6.25024 6.6266 6.30293 6.77622 6.39671 6.88653C6.4905 6.99685 6.6177 7.05882 6.75033 7.05882C6.88297 7.05882 7.01017 6.99685 7.10395 6.88653C7.19774 6.77622 7.25043 6.6266 7.25043 6.47059V6.17647H7.50048C7.63311 6.17647 7.76031 6.1145 7.8541 6.00418C7.94788 5.89387 8.00057 5.74425 8.00057 5.58824C8.00057 5.43223 7.94788 5.28261 7.8541 5.17229C7.76031 5.06198 7.63311 5 7.50048 5H7.25043V4.70588C7.25043 4.54987 7.19774 4.40025 7.10395 4.28994C7.01017 4.17962 6.88297 4.11765 6.75033 4.11765ZM3.24967 4.11765C2.91808 4.11765 2.60008 4.27258 2.36561 4.54837C2.13115 4.82416 1.99943 5.19821 1.99943 5.58824C1.99943 5.97826 2.13115 6.35231 2.36561 6.6281C2.60008 6.90389 2.91808 7.05882 3.24967 7.05882C3.58125 7.05882 3.89925 6.90389 4.13372 6.6281C4.36818 6.35231 4.4999 5.97826 4.4999 5.58824C4.4999 5.19821 4.36818 4.82416 4.13372 4.54837C3.89925 4.27258 3.58125 4.11765 3.24967 4.11765ZM3.24967 5.29412C3.31598 5.29412 3.37958 5.32511 3.42648 5.38026C3.47337 5.43542 3.49971 5.51023 3.49971 5.58824C3.49971 5.66624 3.47337 5.74105 3.42648 5.79621C3.37958 5.85137 3.31598 5.88235 3.24967 5.88235C3.18335 5.88235 3.11975 5.85137 3.07286 5.79621C3.02596 5.74105 2.99962 5.66624 2.99962 5.58824C2.99962 5.51023 3.02596 5.43542 3.07286 5.38026C3.11975 5.32511 3.18335 5.29412 3.24967 5.29412Z" fill="#FFDDB4"/>
</svg>
