<svg width="10" height="10" viewBox="0 0 10 10" fill="none" xmlns="http://www.w3.org/2000/svg">
<path fill-rule="evenodd" clip-rule="evenodd" d="M4.99999 0C7.76144 0 10 2.23856 10 4.99999C10 7.76139 7.76144 10 4.99999 10C2.23858 10 0 7.76142 0 4.99999C0 2.23856 2.23858 0 4.99999 0ZM5.50108 4.5H4.5011V7.49999H5.50108V4.5ZM5.00507 2.37499C4.64053 2.37499 4.37608 2.63796 4.37608 2.99306C4.37608 3.36253 4.63357 3.625 5.00507 3.625C5.36214 3.625 5.6261 3.36251 5.6261 3C5.6261 2.63798 5.36214 2.37499 5.00507 2.37499Z" fill="#FFDDB4"/>
</svg>
