<svg width="3" height="4" viewBox="0 0 3 4" fill="none" xmlns="http://www.w3.org/2000/svg">
<path d="M1.4636 2.95403C1.31585 2.95243 1.17469 2.9033 1.07021 2.81711C0.965725 2.73091 0.906173 2.61446 0.904241 2.49257V2.30183C0.907224 2.10494 0.98255 1.91421 1.12052 1.75423C1.2572 1.59788 1.44651 1.47808 1.66496 1.40968L1.78429 1.3543C1.8129 1.33159 1.83572 1.3044 1.85142 1.27432C1.85887 1.24355 1.85887 1.21279 1.85142 1.18202C1.85782 1.14942 1.85782 1.11618 1.85142 1.08358C1.82256 1.04657 1.78441 1.0151 1.73954 0.991288C1.68635 0.959978 1.6255 0.938658 1.56125 0.928825C1.49701 0.918992 1.43093 0.920886 1.36767 0.934374C1.3044 0.947862 1.24549 0.972616 1.19506 1.0069C1.14463 1.04118 1.10392 1.08415 1.07578 1.1328C1.04684 1.19017 1.00416 1.24212 0.950296 1.28554C0.896432 1.32897 0.832493 1.36297 0.762313 1.38551C0.692132 1.40806 0.617157 1.41868 0.541881 1.41674C0.466605 1.4148 0.392579 1.40033 0.324242 1.37422C0.255906 1.3481 0.194665 1.31087 0.144193 1.26476C0.0937216 1.21864 0.0550579 1.16459 0.0305204 1.10585C0.00598282 1.04711 -0.00392252 0.984885 0.00139726 0.922908C0.00671704 0.860932 0.0271519 0.80048 0.0614785 0.745177C0.208329 0.487892 0.45352 0.277504 0.759377 0.146338C1.06523 0.015173 1.41483 -0.0295125 1.75446 0.0191483C1.98382 0.0511908 2.20091 0.127045 2.3884 0.240649C2.57007 0.34341 2.72003 0.479867 2.82623 0.639075C2.93244 0.798283 2.99194 0.975809 2.99996 1.15741C3.00145 1.32169 2.96341 1.48474 2.88809 1.63733C2.81256 1.7873 2.69799 1.92174 2.55247 2.03111C2.40928 2.14186 2.23849 2.22554 2.05278 2.27722V2.49257C2.05289 2.5553 2.0375 2.61738 2.00754 2.67504C1.97758 2.73269 1.93369 2.7847 1.87855 2.82789C1.82341 2.87108 1.75817 2.90454 1.68682 2.92622C1.61548 2.94791 1.53952 2.95737 1.4636 2.95403ZM1.44868 4C1.30033 4 1.15805 3.95138 1.05316 3.86484C0.948256 3.7783 0.889325 3.66093 0.889325 3.53854C0.889325 3.41615 0.948256 3.29878 1.05316 3.21224C1.15805 3.1257 1.30033 3.07708 1.44868 3.07708C1.59703 3.07708 1.7393 3.1257 1.8442 3.21224C1.9491 3.29878 2.00803 3.41615 2.00803 3.53854C2.00803 3.66093 1.9491 3.7783 1.8442 3.86484C1.7393 3.95138 1.59703 4 1.44868 4Z" fill="#FFDDB4"/>
</svg>
