<svg width="11" height="10" viewBox="0 0 11 10" fill="none" xmlns="http://www.w3.org/2000/svg">
<path d="M9.99961 3.43834V4.5181C9.99961 4.61529 9.95894 4.70849 9.88655 4.77721C9.81417 4.84593 9.71599 4.88454 9.61362 4.88454C9.51125 4.88454 9.41307 4.84593 9.34069 4.77721C9.2683 4.70849 9.22763 4.61529 9.22763 4.5181V3.43834C9.23091 3.31161 9.20819 3.1855 9.16073 3.06702L5.4038 5.207V9.20848C5.46293 9.19179 5.5199 9.16885 5.57364 9.14008L6.87569 8.45607C6.96411 8.41184 7.06715 8.40189 7.16314 8.42832C7.25912 8.45474 7.34057 8.51548 7.39034 8.59776C7.43651 8.68228 7.44621 8.78054 7.41739 8.87174C7.38858 8.96293 7.3235 9.0399 7.23595 9.08634L5.93904 9.77035C5.65419 9.92095 5.33356 10 5.00752 10C4.68149 10 4.36085 9.92095 4.07601 9.77035L0.988124 8.15803C0.690135 7.99757 0.441921 7.76542 0.268458 7.48496C0.0949959 7.20449 0.00240414 6.8856 0 6.56037V3.43834C0 3.11148 0.0926366 2.79097 0.267617 2.51003C0.297123 2.45955 0.331433 2.41232 0.370546 2.36834C0.388607 2.34209 0.409289 2.31755 0.432304 2.29506C0.582244 2.10852 0.771557 1.95376 0.988124 1.84068L4.07601 0.223472C4.36219 0.0767959 4.6823 0 5.00752 0C5.33274 0 5.65286 0.0767959 5.93904 0.223472L9.02692 1.84068C9.24307 1.95354 9.43246 2.10842 9.58274 2.29506L9.6445 2.36834C9.68327 2.41232 9.71758 2.45955 9.74743 2.51003C9.91941 2.79172 10.0066 3.11282 9.99961 3.43834Z" fill="#FFDDB4"/>
<path d="M9.4636 8.95403C9.31585 8.95243 9.17469 8.9033 9.07021 8.81711C8.96572 8.73091 8.90617 8.61446 8.90424 8.49257V8.30183C8.90722 8.10494 8.98255 7.91421 9.12052 7.75423C9.2572 7.59788 9.44651 7.47808 9.66496 7.40968L9.78429 7.3543C9.8129 7.33159 9.83572 7.3044 9.85142 7.27432C9.85887 7.24355 9.85887 7.21279 9.85142 7.18202C9.85782 7.14942 9.85782 7.11618 9.85142 7.08358C9.82256 7.04657 9.78441 7.0151 9.73954 6.99129C9.68635 6.95998 9.6255 6.93866 9.56125 6.92882C9.49701 6.91899 9.43093 6.92089 9.36767 6.93437C9.3044 6.94786 9.24549 6.97262 9.19506 7.0069C9.14463 7.04118 9.10392 7.08415 9.07578 7.1328C9.04684 7.19017 9.00416 7.24212 8.9503 7.28554C8.89643 7.32897 8.83249 7.36297 8.76231 7.38551C8.69213 7.40806 8.61716 7.41868 8.54188 7.41674C8.46661 7.4148 8.39258 7.40033 8.32424 7.37422C8.25591 7.3481 8.19467 7.31087 8.14419 7.26476C8.09372 7.21864 8.05506 7.16459 8.03052 7.10585C8.00598 7.04711 7.99608 6.98489 8.0014 6.92291C8.00672 6.86093 8.02715 6.80048 8.06148 6.74518C8.20833 6.48789 8.45352 6.2775 8.75938 6.14634C9.06523 6.01517 9.41483 5.97049 9.75446 6.01915C9.98382 6.05119 10.2009 6.12704 10.3884 6.24065C10.5701 6.34341 10.72 6.47987 10.8262 6.63907C10.9324 6.79828 10.9919 6.97581 11 7.15741C11.0014 7.32169 10.9634 7.48474 10.8881 7.63733C10.8126 7.7873 10.698 7.92174 10.5525 8.03111C10.4093 8.14186 10.2385 8.22554 10.0528 8.27722V8.49257C10.0529 8.5553 10.0375 8.61738 10.0075 8.67504C9.97758 8.73269 9.93369 8.7847 9.87855 8.82789C9.82341 8.87108 9.75817 8.90454 9.68682 8.92622C9.61548 8.94791 9.53952 8.95737 9.4636 8.95403ZM9.44868 10C9.30033 10 9.15805 9.95138 9.05316 9.86484C8.94826 9.7783 8.88932 9.66093 8.88932 9.53854C8.88932 9.41615 8.94826 9.29878 9.05316 9.21224C9.15805 9.1257 9.30033 9.07708 9.44868 9.07708C9.59703 9.07708 9.7393 9.1257 9.8442 9.21224C9.9491 9.29878 10.008 9.41615 10.008 9.53854C10.008 9.66093 9.9491 9.7783 9.8442 9.86484C9.7393 9.95138 9.59703 10 9.44868 10Z" fill="#FFDDB4"/>
</svg>
