<svg width="10" height="10" viewBox="0 0 10 10" fill="none" xmlns="http://www.w3.org/2000/svg">
<path d="M3.66364 2.04344e-05C2.80455 -0.00496212 1.96818 0.901862 2.35 2.02792H0.909091C0.667985 2.02792 0.436754 2.13291 0.266267 2.31979C0.095779 2.50667 0 2.76014 0 3.02443V4.02094C0 4.15308 0.0478895 4.27982 0.133133 4.37326C0.218377 4.4667 0.333993 4.51919 0.454545 4.51919H4.54545V3.02443H5.45455V4.51919H9.54545C9.66601 4.51919 9.78162 4.4667 9.86687 4.37326C9.95211 4.27982 10 4.15308 10 4.02094V3.02443C10 2.76014 9.90422 2.50667 9.73373 2.31979C9.56325 2.13291 9.33202 2.02792 9.09091 2.02792H7.65C8.18182 0.398625 6.18182 -0.752345 5.25909 0.652735L5 1.03141L4.74091 0.64277C4.45455 0.199323 4.05909 0.00500299 3.66364 2.04344e-05ZM3.63636 1.03141C4.04091 1.03141 4.24545 1.56952 3.95909 1.88342C3.67273 2.19733 3.18182 1.97311 3.18182 1.52966C3.18182 1.39752 3.22971 1.27079 3.31495 1.17734C3.4002 1.0839 3.51581 1.03141 3.63636 1.03141ZM6.36364 1.03141C6.76818 1.03141 6.97273 1.56952 6.68636 1.88342C6.4 2.19733 5.90909 1.97311 5.90909 1.52966C5.90909 1.39752 5.95698 1.27079 6.04222 1.17734C6.12747 1.0839 6.24308 1.03141 6.36364 1.03141ZM0.454545 5.01745V9.00349C0.454545 9.26778 0.550324 9.52125 0.720812 9.70813C0.8913 9.89501 1.12253 10 1.36364 10H8.63636C8.87747 10 9.1087 9.89501 9.27919 9.70813C9.44968 9.52125 9.54545 9.26778 9.54545 9.00349V5.01745H5.45455V9.00349H4.54545V5.01745H0.454545Z" fill="#FFDDB4"/>
</svg>
